<?xml version="1.0" encoding="iso-8859-1"?>
<!-- Uploaded to: SVG Repo, www.svgrepo.com, Generator: SVG Repo Mixer Tools -->
<svg height="800px" width="800px" version="1.1" id="Layer_1" xmlns="http://www.w3.org/2000/svg" xmlns:xlink="http://www.w3.org/1999/xlink" 
	 viewBox="0 0 392.598 392.598" xml:space="preserve">
<path d="M295.952,99.653c-53.333,0-96.646,43.378-96.646,96.646s43.378,96.646,96.646,96.646
	s96.646-43.313,96.646-96.646S349.285,99.653,295.952,99.653z M221.156,196.299c0-41.244,33.552-74.796,74.796-74.796
	s74.796,33.552,74.796,74.796s-33.552,74.861-74.796,74.861S221.156,237.543,221.156,196.299z"/>

<path d="M66.715,0.032c-21.204,0-38.465,17.325-38.465,38.529S45.576,77.091,66.78,77.091
	s38.529-17.325,38.529-38.529S87.984,0.032,66.715,0.032z M66.715,55.305c-9.18,0-16.679-7.499-16.679-16.679
	s7.499-16.679,16.679-16.679s16.743,7.434,16.743,16.679S76.024,55.305,66.715,55.305z"/>

<path d="M107.83,303.612c-5.624-2.133-11.83-3.943-18.23-5.236c-4.719-0.905-9.503,1.293-11.83,5.56
	l-11.055,20.687l-11.055-20.687c-2.263-4.267-7.046-6.465-11.83-5.56c-6.465,1.293-12.606,3.103-18.23,5.236
	C10.279,309.495,0,324.493,0,340.913v40.727c0,6.012,4.848,10.925,10.925,10.925h111.709c6.012,0,10.925-4.848,10.925-10.925
	v-40.727C133.495,324.493,123.152,309.495,107.83,303.612z M21.851,340.978c0-7.564,4.784-14.352,11.895-17.002
	c2.133-0.84,4.396-1.552,6.723-2.263l16.679,31.354c4.073,7.758,15.127,7.758,19.265,0l16.679-31.354
	c2.392,0.711,4.655,1.487,6.788,2.263c7.111,2.715,11.83,9.438,11.83,17.002v29.802H21.851
	C21.851,370.78,21.851,340.978,21.851,340.978z"/>

<path d="M107.83,88.21c-5.624-2.133-11.83-3.943-18.23-5.236c-4.719-0.905-9.503,1.293-11.83,5.56
	L66.715,109.22L55.661,88.533c-2.263-4.267-7.046-6.465-11.83-5.56c-6.465,1.293-12.606,3.103-18.23,5.236
	c-15.257,5.883-25.535,20.816-25.535,37.236v40.727c0,6.012,4.848,10.925,10.925,10.925h111.644c6.012,0,10.925-4.848,10.925-10.925
	v-40.727C133.495,109.026,123.152,94.093,107.83,88.21z M21.851,125.446c0-7.564,4.784-14.352,11.895-17.002
	c2.133-0.84,4.396-1.552,6.723-2.263l16.679,31.354c4.073,7.758,15.127,7.758,19.265,0l16.679-31.354
	c2.392,0.711,4.655,1.487,6.788,2.263c7.111,2.715,11.83,9.438,11.83,17.002v29.802H21.851
	C21.851,155.248,21.851,125.446,21.851,125.446z"/>

<path d="M66.715,215.564c-21.269,0-38.529,17.325-38.529,38.529c0,21.204,17.325,38.529,38.529,38.529
	s38.529-17.325,38.529-38.529C105.309,232.76,87.984,215.564,66.715,215.564z M66.715,270.772c-9.18,0-16.679-7.499-16.679-16.679
	c0-9.18,7.499-16.679,16.679-16.679s16.679,7.499,16.679,16.679C83.523,263.273,76.024,270.772,66.715,270.772z"/>
<g>
	<path d="M295.952,140.832c-30.578,0-55.467,24.889-55.467,55.467s24.889,55.467,55.467,55.467
		s55.467-24.889,55.467-55.467S326.529,140.832,295.952,140.832z M262.335,196.299c0-18.554,15.063-33.616,33.616-33.616
		c18.554,0,33.616,15.063,33.616,33.616s-15.063,33.616-33.616,33.616C277.398,229.915,262.335,214.853,262.335,196.299z"/>
	<path d="M203.119,275.685l-57.406,46.352c-4.719,3.814-5.43,10.667-1.616,15.321
		c3.814,4.719,10.667,5.43,15.321,1.616l57.406-46.352c4.719-3.814,5.43-10.667,1.616-15.321
		C214.691,272.582,207.838,271.871,203.119,275.685z"/>
	<path d="M145.778,70.368l57.406,46.352c4.719,3.814,11.507,3.103,15.321-1.616
		c3.814-4.719,3.103-11.507-1.616-15.321L159.483,53.43c-4.719-3.814-11.507-3.103-15.321,1.616
		C140.412,59.701,141.059,66.554,145.778,70.368z"/>
	<circle cx="296.533" cy="196.364" r="10.99"/>
</g>
</svg>